<svg xmlns="http://www.w3.org/2000/svg" viewBox="0 0 64 64">
  <!-- Morel mushroom icon -->
  <rect x="26" y="42" width="12" height="16" rx="3" fill="#c8a96e"/>
  <!-- Honeycombed cap -->
  <ellipse cx="32" cy="28" rx="16" ry="20" fill="#8b6914"/>
  <ellipse cx="32" cy="24" rx="14" ry="16" fill="#a07820"/>
  <!-- Cap texture lines -->
  <path d="M20 20 Q32 18 44 20 Q32 22 20 20Z" fill="#7a5c10" opacity="0.6"/>
  <path d="M19 26 Q32 24 45 26 Q32 28 19 26Z" fill="#7a5c10" opacity="0.6"/>
  <path d="M20 32 Q32 30 44 32 Q32 34 20 32Z" fill="#7a5c10" opacity="0.6"/>
  <path d="M24 14 Q32 12 40 14 Q32 16 24 14Z" fill="#7a5c10" opacity="0.6"/>
  <!-- Vertical ridges -->
  <line x1="24" y1="12" x2="22" y2="40" stroke="#7a5c10" stroke-width="1.5" opacity="0.5"/>
  <line x1="32" y1="10" x2="32" y2="42" stroke="#7a5c10" stroke-width="1.5" opacity="0.5"/>
  <line x1="40" y1="12" x2="42" y2="40" stroke="#7a5c10" stroke-width="1.5" opacity="0.5"/>
</svg>
